<svg fill="#0d315f" id="bold" height="512" viewBox="0 0 24 24" width="512" xmlns="http://www.w3.org/2000/svg"><path d="m15.25 24h-14.5c-.414 0-.75-.336-.75-.75v-3.5c0-2.067 1.683-3.75 3.75-3.75h8.5c2.067 0 3.75 1.683 3.75 3.75v3.5c0 .414-.336.75-.75.75z"/><path d="m17.5 21h-2.25c-.553 0-1-.447-1-1s.447-1 1-1h2.25c.552 0 1-.448 1-1v-7.5c0-.552.447-1 1-1s1 .448 1 1v7.5c0 1.654-1.346 3-3 3z"/><path d="m22.25 0h-5.5c-.965 0-1.75.785-1.75 1.75v4.75c0 2.481 2.019 4.5 4.5 4.5s4.5-2.019 4.5-4.5v-4.75c0-.965-.785-1.75-1.75-1.75zm-1 5.75h-1v1c0 .414-.336.75-.75.75s-.75-.336-.75-.75v-1h-1c-.414 0-.75-.336-.75-.75s.336-.75.75-.75h1v-1c0-.414.336-.75.75-.75s.75.336.75.75v1h1c.414 0 .75.336.75.75s-.336.75-.75.75z"/><path d="m3.6 8.6c0-.02 0-.05.01-.07.44-2.02 2.24-3.53 4.39-3.53 2.16 0 3.97 1.53 4.4 3.56 0 .01.01.03.01.04-.01 0-.03.01-.04.01-1.68.45-2.77-1.38-2.81-1.46-.08-.13-.21-.22-.36-.24s-.3.02-.42.13c-2.12 1.97-4.95 1.59-5.18 1.56z"/><path d="m11.82 9.68c-1.35 0-2.31-.94-2.79-1.54-2.28 1.79-4.97 1.53-5.52 1.46-.01.15 0 .29.02.43.27 2.23 2.17 3.97 4.47 3.97 2.31 0 4.22-1.75 4.47-4 .02-.13.03-.26.02-.4-.23.06-.45.08-.67.08z"/></svg>