<?xml version="1.0" encoding="iso-8859-1"?>
<!-- Generator: Adobe Illustrator 19.0.0, SVG Export Plug-In . SVG Version: 6.00 Build 0)  -->
<svg fill="#0d315f" version="1.1" id="Capa_1" xmlns="http://www.w3.org/2000/svg" xmlns:xlink="http://www.w3.org/1999/xlink" x="0px" y="0px"
	 viewBox="0 0 480 480" style="enable-background:new 0 0 480 480;" xml:space="preserve">
<g>
	<g>
		<polygon points="224,200 224,216 232,216 232,352 248,352 248,216 256,216 256,200 		"/>
	</g>
</g>
<g>
	<g>
		<path d="M269.726,175.372c26.211-16.417,34.151-50.974,17.734-77.185s-50.974-34.151-77.185-17.734
			c-26.211,16.417-34.151,50.974-17.734,77.185c4.495,7.176,10.558,13.239,17.734,17.734C189.223,186.421,176.026,208.225,176,232
			v152c-0.003,4.416,3.575,7.997,7.991,8c0.003,0,0.006,0,0.009,0h112c4.416,0.003,7.997-3.575,8-7.991c0-0.003,0-0.006,0-0.009V232
			C303.974,208.225,290.777,186.421,269.726,175.372z M200,128c0-22.091,17.909-40,40-40c22.091,0,40,17.909,40,40s-17.909,40-40,40
			C217.919,167.974,200.026,150.081,200,128z M288,376h-96V232c0-26.51,21.49-48,48-48c26.51,0,48,21.49,48,48V376z"/>
	</g>
</g>
<g>
	<g>
		<polygon points="368,200 368,216 376,216 376,352 392,352 392,216 400,216 400,200 		"/>
	</g>
</g>
<g>
	<g>
		<polygon points="80,200 80,216 88,216 88,352 104,352 104,216 112,216 112,200 		"/>
	</g>
</g>
<g>
	<g>
		<path d="M240,0C107.452,0,0,107.452,0,240s107.452,240,240,240s240-107.452,240-240C479.85,107.514,372.486,0.15,240,0z M424,128
			c-0.026,22.081-17.919,39.974-40,40c-22.091,0-40-17.909-40-40s17.909-40,40-40C406.091,88,424,105.909,424,128z M96,88
			c22.091,0,40,17.909,40,40c-0.026,22.081-17.919,39.974-40,40c-22.091,0-40-17.909-40-40S73.909,88,96,88z M32,322.979
			c-24.094-60.156-20.852-127.813,8.883-185.39c2.739,15.619,11.964,29.346,25.392,37.782C45.223,186.421,32.026,208.225,32,232
			V322.979z M62.179,376c-5.11-6.65-9.844-13.581-14.179-20.76V232c0-26.51,21.49-48,48-48c26.51,0,48,21.49,48,48v144H62.179z
			 M240,464c-62.435,0.019-122.03-26.09-164.343-72H152c4.416,0.003,7.997-3.575,8-7.991c0-0.003,0-0.006,0-0.009V232
			c-0.026-23.775-13.223-45.579-34.274-56.628c26.194-16.386,34.145-50.903,17.759-77.097C133.249,81.911,115.301,71.98,96,72
			c-1.408,0-2.789,0.109-4.17,0.211c84.564-74.949,211.777-74.949,296.341,0C386.789,72.109,385.408,72,384,72
			c-30.897-0.031-55.969,24.99-56,55.887c-0.02,19.301,9.911,37.249,26.274,47.485C333.223,186.421,320.026,208.225,320,232v152
			c-0.003,4.416,3.575,7.997,7.991,8c0.003,0,0.006,0,0.009,0h76.343C362.03,437.91,302.435,464.019,240,464z M432,355.24
			c-4.336,7.179-9.069,14.11-14.179,20.76H336V232c0-26.51,21.49-48,48-48c26.51,0,48,21.49,48,48V355.24z M413.726,175.372
			c13.427-8.435,22.653-22.163,25.392-37.781c29.734,57.577,32.976,125.234,8.882,185.39V232
			C447.974,208.225,434.777,186.421,413.726,175.372z"/>
	</g>
</g>
<g>
</g>
<g>
</g>
<g>
</g>
<g>
</g>
<g>
</g>
<g>
</g>
<g>
</g>
<g>
</g>
<g>
</g>
<g>
</g>
<g>
</g>
<g>
</g>
<g>
</g>
<g>
</g>
<g>
</g>
</svg>
